<svg class="icon" viewBox="0 0 1025 1024" xmlns="http://www.w3.org/2000/svg" width="200.195" height="200"><defs><style/></defs><path d="M512.014 0c282.829 0 512.019 229.202 512.019 511.992 0 282.78-229.185 512.008-512.02 512.008C229.24 1024 0 794.777 0 511.992 0 229.224 229.24 0 512.014 0zm33.836 688.342c.564-32.284 2.819-55.64 6.718-69.999 3.923-14.383 9.87-27.079 18.001-38.155 8.08-11.052 25.282-28.284 51.59-51.59 39.177-34.69 65.541-64.18 78.977-88.412 13.486-24.227 20.205-50.715 20.205-79.406 0-49.667-19.128-91.972-57.438-126.975-38.305-34.996-89.59-52.512-153.902-52.512-60.72 0-109.565 16.31-146.514 48.897-36.872 32.614-59.151 79.59-66.568 140.896l82.956 9.87c7.18-45.765 22.335-79.406 45.357-100.972 23.028-21.51 51.742-32.284 86.159-32.284 35.538 0 65.669 11.901 90.208 35.665 24.512 23.77 36.765 51.385 36.765 82.799 0 17.33-4.18 33.356-12.589 47.998-8.308 14.691-26.537 34.355-54.514 59-27.922 24.663-47.334 43.455-58.103 56.328-14.669 17.644-25.282 35.158-31.844 52.518-8.978 23.022-13.465 50.408-13.465 82.095 0 5.39.129 13.493.436 24.262l77.565-.023zm9.464 161.982v-92H463.33v92h91.984zm0 0"/></svg>