<svg class="icon" viewBox="0 0 1024 1024" xmlns="http://www.w3.org/2000/svg" width="200" height="200"><defs><style/></defs><path d="M210.41 410.34H68.475A68.421 68.421 0 0 0 .292 484.467l39.867 476.801A68.438 68.438 0 0 0 108.34 1024h102.07a34.21 34.21 0 0 0 34.21-34.21V444.566a34.228 34.228 0 0 0-34.21-34.228zm743.382 0H647.584C752.94 19.984 574.34 0 574.34 0c-75.781 0-60.073 60.005-65.763 69.972 0 144.883-116.381 265.881-172.91 316.107a67.876 67.876 0 0 0-22.609 50.821v552.89c0 18.894 15.317 34.21 34.211 34.21h399.998a136.655 136.655 0 0 0 122.616-76.054c31.144-63.02 69.29-154.51 93.602-229.66 23.528-72.698 44.91-162.875 57.45-226.288a68.37 68.37 0 0 0-67.144-81.659z"/></svg>